<svg xmlns="http://www.w3.org/2000/svg" width="20.49" height="21.521" viewBox="0 0 20.49 21.521">
  <defs>
    <style>
      .cls-1 {
        fill: none;
        stroke: #ededed;
        stroke-width: 1.49px;
        fill-rule: evenodd;
      }
    </style>
  </defs>
  <path id="тел" class="cls-1" d="M279.675,490.392l1.759,1.852c0.971,1.023.5,2.244,0,3.7a43.7,43.7,0,0,1-5.545,7.631,37.734,37.734,0,0,1-7.2,5.794c-1.283.695-2.546,1.023-3.517,0l-1.759-1.852a1.262,1.262,0,0,1,0-1.851l3.517-2.778a1.277,1.277,0,0,1,1.759,0h0l1.04,1.095a35.8,35.8,0,0,0,3.8-3.409,31.705,31.705,0,0,0,2.835-3.5l-1.077-1.134a1.45,1.45,0,0,1,0-1.851l2.638-3.7a1.2,1.2,0,0,1,1.759,0M267.8,508.446" transform="translate(-262.255 -489.255)"/>
</svg>
